<?xml version="1.0" encoding="utf-8"?>
<!-- Generator: Adobe Illustrator 26.0.0, SVG Export Plug-In . SVG Version: 6.00 Build 0)  -->
<svg version="1.1" id="Layer_1" xmlns="http://www.w3.org/2000/svg" xmlns:xlink="http://www.w3.org/1999/xlink" x="0px" y="0px"
	 viewBox="0 0 1000 1000" style="enable-background:new 0 0 1000 1000;" xml:space="preserve">
<style type="text/css">
	.st0{fill:#FFFFFF;}
	.st1{fill:url(#路径_00000142149374390968596540000011861634901242821287_);}
	.st2{fill:url(#路径_00000100351054190099802430000015496761342839896254_);}
	.st3{fill:url(#路径_00000119116943289704177040000003514825658580232070_);}
	.st4{fill:url(#形状_00000078036495883892160520000012562460980012541574_);}
	.st5{fill:url(#形状_00000049191005591686130650000012081508577745099186_);}
	.st6{fill:url(#形状_00000021838912894269284010000017160231820371357860_);}
</style>
<g id="通义法睿logo_00000062873522637356860670000004236275241195608251_" transform="translate(2, 2)">
	<g id="编组_00000059292297503122986130000012981252646097043102_" transform="translate(2, 1)">
		<polygon id="路径_00000169523983134138038260000012693425703445569688_" class="st0" points="404.5,167.6 456,255.9 
			404.5,343.2 816.2,343.2 764.7,417.5 363.4,417.5 306.8,335.3 		"/>
		<polygon id="路径_00000028292663779449605350000010827990842055538601_" class="st0" points="204.1,343.2 300.6,343.2 
			503.3,691.1 446.1,789.2 250.2,789.2 301.7,677.7 399.1,677.7 		"/>
		<polygon id="路径_00000070099265625814547910000015844384453726213052_" class="st0" points="456,785.4 507.4,873.8 
			713.2,520.7 764.7,603.4 867.7,603.4 769.9,417.5 656.7,417.5 		"/>
	</g>
	<g id="编组_00000019666295283373839220000010825971624781403560_" transform="translate(2, 1)">
		
			<linearGradient id="路径_00000111190569101487421850000004056919694061981851_" gradientUnits="userSpaceOnUse" x1="8.4543" y1="1093.8264" x2="34.7923" y2="1122.2434" gradientTransform="matrix(13.7081 0 0 -7.1237 251.7404 8206.3564)">
			<stop  offset="0" style="stop-color:#615CED;stop-opacity:0.5"/>
			<stop  offset="0" style="stop-color:#6964ED;stop-opacity:0.53"/>
			<stop  offset="1.000000e-02" style="stop-color:#8884F1;stop-opacity:0.62"/>
			<stop  offset="3.000000e-02" style="stop-color:#A4A2F4;stop-opacity:0.72"/>
			<stop  offset="4.000000e-02" style="stop-color:#BDBBF7;stop-opacity:0.79"/>
			<stop  offset="6.000000e-02" style="stop-color:#D2D0F9;stop-opacity:0.86"/>
			<stop  offset="7.000000e-02" style="stop-color:#E2E1FB;stop-opacity:0.91"/>
			<stop  offset="9.000000e-02" style="stop-color:#EFEFFD;stop-opacity:0.95"/>
			<stop  offset="0.12" style="stop-color:#F8F8FE;stop-opacity:0.98"/>
			<stop  offset="0.15" style="stop-color:#FDFDFE"/>
			<stop  offset="0.25" style="stop-color:#FFFFFF"/>
		</linearGradient>
		
			<polygon id="路径_00000147915398988286224150000013703939952839049903_" style="fill:url(#路径_00000111190569101487421850000004056919694061981851_);" points="
			404.5,167.6 456,255.9 404.5,343.2 816.2,343.2 764.7,417.5 363.4,417.5 306.8,335.3 		"/>
		
			<linearGradient id="路径_00000133515112155870458500000015251568328909032584_" gradientUnits="userSpaceOnUse" x1="33.9366" y1="1031.8864" x2="-12.858" y2="1049.9409" gradientTransform="matrix(8.1694 0 0 -11.8763 226.6775 12949.3926)">
			<stop  offset="0" style="stop-color:#615CED;stop-opacity:0.5"/>
			<stop  offset="0" style="stop-color:#6964ED;stop-opacity:0.53"/>
			<stop  offset="1.000000e-02" style="stop-color:#8884F1;stop-opacity:0.62"/>
			<stop  offset="3.000000e-02" style="stop-color:#A4A2F4;stop-opacity:0.72"/>
			<stop  offset="4.000000e-02" style="stop-color:#BDBBF7;stop-opacity:0.79"/>
			<stop  offset="6.000000e-02" style="stop-color:#D2D0F9;stop-opacity:0.86"/>
			<stop  offset="7.000000e-02" style="stop-color:#E2E1FB;stop-opacity:0.91"/>
			<stop  offset="9.000000e-02" style="stop-color:#EFEFFD;stop-opacity:0.95"/>
			<stop  offset="0.12" style="stop-color:#F8F8FE;stop-opacity:0.98"/>
			<stop  offset="0.15" style="stop-color:#FDFDFE"/>
			<stop  offset="0.25" style="stop-color:#FFFFFF"/>
		</linearGradient>
		
			<polygon id="路径_00000139985045638711752690000007227136393069410184_" style="fill:url(#路径_00000133515112155870458500000015251568328909032584_);" points="
			250.1,789.2 301.7,677.7 399.1,677.8 204.1,343.2 300.5,343.2 503.3,691.1 446.1,789.2 		"/>
		
			<linearGradient id="路径_00000095308829845534756670000002115062820100360377_" gradientUnits="userSpaceOnUse" x1="37.608" y1="1056.6146" x2="37.6047" y2="1017.4094" gradientTransform="matrix(11.0774 0 0 -11.6388 245.2323 12715.2598)">
			<stop  offset="0" style="stop-color:#615CED;stop-opacity:0.5"/>
			<stop  offset="0" style="stop-color:#6964ED;stop-opacity:0.53"/>
			<stop  offset="1.000000e-02" style="stop-color:#8884F1;stop-opacity:0.62"/>
			<stop  offset="3.000000e-02" style="stop-color:#A4A2F4;stop-opacity:0.72"/>
			<stop  offset="4.000000e-02" style="stop-color:#BDBBF7;stop-opacity:0.79"/>
			<stop  offset="6.000000e-02" style="stop-color:#D2D0F9;stop-opacity:0.86"/>
			<stop  offset="7.000000e-02" style="stop-color:#E2E1FB;stop-opacity:0.91"/>
			<stop  offset="9.000000e-02" style="stop-color:#EFEFFD;stop-opacity:0.95"/>
			<stop  offset="0.12" style="stop-color:#F8F8FE;stop-opacity:0.98"/>
			<stop  offset="0.15" style="stop-color:#FDFDFE"/>
			<stop  offset="0.25" style="stop-color:#FFFFFF"/>
		</linearGradient>
		
			<polygon id="路径_00000016051347413104335230000011739271525438745479_" style="fill:url(#路径_00000095308829845534756670000002115062820100360377_);" points="
			867.7,603.4 764.7,603.4 713.2,520.7 507.4,873.8 456,785.6 656.7,417.5 769.9,417.5 		"/>
	</g>
	
		<linearGradient id="形状_00000075134058584377680020000000290633275844112275_" gradientUnits="userSpaceOnUse" x1="29.4221" y1="1038.2013" x2="-3.0221" y2="1018.9127" gradientTransform="matrix(20 0 0 -20 234 21064)">
		<stop  offset="0" style="stop-color:#615CED"/>
		<stop  offset="0.17" style="stop-color:#6156EC"/>
		<stop  offset="0.38" style="stop-color:#6147E9"/>
		<stop  offset="0.61" style="stop-color:#622FE4"/>
		<stop  offset="0.62" style="stop-color:#632DE4"/>
	</linearGradient>
	
		<path id="形状_00000015330086763774551180000000156664298259914401_" style="fill:url(#形状_00000075134058584377680020000000290633275844112275_);" d="
		M867.9,562.4l-87-152.1l-10.3-17.9l46.1-80.5c1.5-2.8,2.4-5.9,2.4-8.9s-0.8-6.1-2.4-8.9l-51.1-89.5c-1.5-2.8-3.8-5-6.5-6.5
		c-2.7-1.5-5.7-2.4-8.9-2.4H558.7l-45.6-55.2c-3.1-5.4-15.1-19.1-15.1-19.1h-98.4c-3.3,0-6.4,0.9-9.2,2.5c-2.8,1.6-5.1,4-6.7,6.8
		l-90.3,158L282.8,307h-88.3c-3.2,0-6.2,0.9-8.9,2.4c-2.7,1.5-4.9,3.8-6.5,6.5l-51.1,89.5c-1.5,2.8-2.4,5.9-2.4,8.9s0.8,6.1,2.4,8.9
		l97.2,170l-46.1,80.5c-1.5,2.8-2.4,5.9-2.4,8.9c0,3.1,0.8,6.1,2.4,8.9l51.1,89.5c1.5,2.8,3.8,5,6.5,6.5c2.7,1.5,5.7,2.4,8.9,2.4
		h191.6l45.6,75.8c3.1,5.4,15.1-1.4,15.1-1.4h98.4c3.3,0,6.4-0.9,9.2-2.5c2.8-1.6,5.1-4,6.7-6.8l100.9-176.5h88.3
		c3.2,0,6.2-0.9,8.9-2.4c2.7-1.5,4.9-3.8,6.5-6.5l51.1-89.5c1.6-2.8,2.4-5.9,2.4-8.9C870.3,568.3,869.6,565.2,867.9,562.4z
		 M396.7,149.2l50.6,88.5l-50.6,106.5h404.8L751,418.5H356.3l-55.7-101.2L396.7,149.2z M437.5,753H244.9l50.6-74.3h106.2L189.1,307
		h105.4l51,89.2l147.8,258.6l-56,98.1L437.5,753z M750.9,604.4l-50.6-101.2l-202.4,354l-50.6-88.5l50.6-88.5l146.7-261.6h111.3
		L852,604.4H750.7H750.9z"/>
	
		<linearGradient id="形状_00000067932632932638679750000000322923165562110113_" gradientUnits="userSpaceOnUse" x1="-5.4163" y1="1028.4689" x2="31.8163" y2="1028.4689" gradientTransform="matrix(20 0 0 -20 234 21064)">
		<stop  offset="0" style="stop-color:#615CED"/>
		<stop  offset="4.000000e-02" style="stop-color:#615CED;stop-opacity:0.96"/>
		<stop  offset="9.000000e-02" style="stop-color:#615CED;stop-opacity:0.86"/>
		<stop  offset="0.17" style="stop-color:#615CED;stop-opacity:0.69"/>
		<stop  offset="0.25" style="stop-color:#615CED;stop-opacity:0.46"/>
		<stop  offset="0.35" style="stop-color:#615CED;stop-opacity:0.16"/>
		<stop  offset="0.4" style="stop-color:#615CED;stop-opacity:0"/>
	</linearGradient>
	
		<path id="形状_00000153701526855006986570000002111802051037381022_" style="fill:url(#形状_00000067932632932638679750000000322923165562110113_);" d="
		M867.9,562.4l-87-152.1l-10.3-17.9l46.1-80.5c1.5-2.8,2.4-5.9,2.4-8.9s-0.8-6.1-2.4-8.9l-51.1-89.5c-1.5-2.8-3.8-5-6.5-6.5
		c-2.7-1.5-5.7-2.4-8.9-2.4H558.7l-45.6-55.2c-3.1-5.4-15.1-19.1-15.1-19.1h-98.4c-3.3,0-6.4,0.9-9.2,2.5c-2.8,1.6-5.1,4-6.7,6.8
		l-90.3,158L282.8,307h-88.3c-3.2,0-6.2,0.9-8.9,2.4c-2.7,1.5-4.9,3.8-6.5,6.5l-51.1,89.5c-1.5,2.8-2.4,5.9-2.4,8.9s0.8,6.1,2.4,8.9
		l97.2,170l-46.1,80.5c-1.5,2.8-2.4,5.9-2.4,8.9c0,3.1,0.8,6.1,2.4,8.9l51.1,89.5c1.5,2.8,3.8,5,6.5,6.5c2.7,1.5,5.7,2.4,8.9,2.4
		h191.6l45.6,75.8c3.1,5.4,15.1-1.4,15.1-1.4h98.4c3.3,0,6.4-0.9,9.2-2.5c2.8-1.6,5.1-4,6.7-6.8l100.9-176.5h88.3
		c3.2,0,6.2-0.9,8.9-2.4c2.7-1.5,4.9-3.8,6.5-6.5l51.1-89.5c1.6-2.8,2.4-5.9,2.4-8.9C870.3,568.3,869.6,565.2,867.9,562.4z
		 M396.7,149.2l50.6,88.5l-50.6,106.5h404.8L751,418.5H356.3l-55.7-101.2L396.7,149.2z M437.5,753H244.9l50.6-74.3h106.2L189.1,307
		h105.4l51,89.2l147.8,258.6l-56,98.1L437.5,753z M750.9,604.4l-50.6-101.2l-202.4,354l-50.6-88.5l50.6-88.5l146.7-261.6h111.3
		L852,604.4H750.7H750.9z"/>
	
		<linearGradient id="形状_00000014624179049576217780000005287183309742849203_" gradientUnits="userSpaceOnUse" x1="22.7899" y1="1045.6652" x2="3.6059" y2="1011.441" gradientTransform="matrix(20 0 0 -20 234 21064)">
		<stop  offset="0" style="stop-color:#A7A5F6"/>
		<stop  offset="5.000000e-02" style="stop-color:#9895F4;stop-opacity:0.79"/>
		<stop  offset="0.12" style="stop-color:#8784F1;stop-opacity:0.55"/>
		<stop  offset="0.19" style="stop-color:#7975F0;stop-opacity:0.35"/>
		<stop  offset="0.25" style="stop-color:#6F6AEE;stop-opacity:0.2"/>
		<stop  offset="0.31" style="stop-color:#6762ED;stop-opacity:9.000000e-02"/>
		<stop  offset="0.36" style="stop-color:#625DED;stop-opacity:2.000000e-02"/>
		<stop  offset="0.4" style="stop-color:#615CED;stop-opacity:0"/>
	</linearGradient>
	
		<path id="形状_00000107577251033893729710000008774002231294313656_" style="fill:url(#形状_00000014624179049576217780000005287183309742849203_);" d="
		M867.9,562.4l-87-152.1l-10.3-17.9l46.1-80.5c1.5-2.8,2.4-5.9,2.4-8.9s-0.8-6.1-2.4-8.9l-51.1-89.5c-1.5-2.8-3.8-5-6.5-6.5
		c-2.7-1.5-5.7-2.4-8.9-2.4H558.7l-45.6-55.2c-3.1-5.4-15.1-19.1-15.1-19.1h-98.4c-3.3,0-6.4,0.9-9.2,2.5c-2.8,1.6-5.1,4-6.7,6.8
		l-90.3,158L282.8,307h-88.3c-3.2,0-6.2,0.9-8.9,2.4c-2.7,1.5-4.9,3.8-6.5,6.5l-51.1,89.5c-1.5,2.8-2.4,5.9-2.4,8.9s0.8,6.1,2.4,8.9
		l97.2,170l-46.1,80.5c-1.5,2.8-2.4,5.9-2.4,8.9c0,3.1,0.8,6.1,2.4,8.9l51.1,89.5c1.5,2.8,3.8,5,6.5,6.5c2.7,1.5,5.7,2.4,8.9,2.4
		h191.6l45.6,75.8c3.1,5.4,15.1-1.4,15.1-1.4h98.4c3.3,0,6.4-0.9,9.2-2.5c2.8-1.6,5.1-4,6.7-6.8l100.9-176.5h88.3
		c3.2,0,6.2-0.9,8.9-2.4c2.7-1.5,4.9-3.8,6.5-6.5l51.1-89.5c1.6-2.8,2.4-5.9,2.4-8.9C870.3,568.3,869.6,565.2,867.9,562.4z
		 M396.7,149.2l50.6,88.5l-50.6,106.5h404.8L751,418.5H356.3l-55.7-101.2L396.7,149.2z M437.5,753H244.9l50.6-74.3h106.2L189.1,307
		h105.4l51,89.2l147.8,258.6l-56,98.1L437.5,753z M750.9,604.4l-50.6-101.2l-202.4,354l-50.6-88.5l50.6-88.5l146.7-261.6h111.3
		L852,604.4H750.7H750.9z"/>
</g>
</svg>
